<svg width="757" height="57" viewBox="0 0 757 57" fill="none" xmlns="http://www.w3.org/2000/svg">
<path d="M13.744 55.616H3.824C2.8 55.616 2.05333 55.3813 1.584 54.912C1.11467 54.4427 0.88 53.696 0.88 52.672V11.2C0.88 10.6453 0.944 10.176 1.072 9.792C1.24267 9.408 1.47733 9.088 1.776 8.832L10.032 1.856C10.2453 1.68533 10.5227 1.55733 10.864 1.472C11.248 1.344 11.6533 1.28 12.08 1.28H31.664C34.6933 1.28 37.232 1.6 39.28 2.24C41.328 2.88 42.9493 3.776 44.144 4.928C45.3387 6.08 46.1707 7.46666 46.64 9.088C47.152 10.7093 47.408 12.48 47.408 14.4V22.592C47.408 24.64 47.1093 26.5173 46.512 28.224C45.9573 29.888 44.976 31.3173 43.568 32.512L35.248 39.424C34.1813 40.32 32.7947 41.0667 31.088 41.664C29.424 42.2187 27.376 42.5387 24.944 42.624V45.696C24.944 46.2507 24.8587 46.72 24.688 47.104C24.56 47.488 24.3467 47.808 24.048 48.064L15.728 54.976C15.5573 55.1467 15.28 55.296 14.896 55.424C14.5547 55.552 14.1707 55.616 13.744 55.616ZM22 48C22.8107 48 23.3867 47.8293 23.728 47.488C24.112 47.104 24.304 46.5067 24.304 45.696V35.072H31.664C37.4667 35.072 41.4347 33.92 43.568 31.616C45.7013 29.312 46.768 26.304 46.768 22.592V14.4C46.768 10.688 45.7013 7.68 43.568 5.376C41.4347 3.072 37.4667 1.92 31.664 1.92H12.08C11.2693 1.92 10.672 2.112 10.288 2.496C9.94667 2.83733 9.776 3.41333 9.776 4.224V45.696C9.776 46.5067 9.94667 47.104 10.288 47.488C10.672 47.8293 11.2693 48 12.08 48H22ZM30.768 29.632H17.584V42.24H16.944V7.68H30.768C32.7733 7.68 34.3947 7.91466 35.632 8.384C36.912 8.81067 37.8933 9.408 38.576 10.176C39.2587 10.944 39.728 11.8613 39.984 12.928C40.24 13.9947 40.368 15.1467 40.368 16.384V21.12C40.368 22.3573 40.24 23.5093 39.984 24.576C39.728 25.6 39.2587 26.496 38.576 27.264C37.8933 27.9893 36.912 28.5653 35.632 28.992C34.3947 29.4187 32.7733 29.632 30.768 29.632ZM17.584 28.992H30.768C32.6453 28.992 34.16 28.8 35.312 28.416C36.5067 28.032 37.424 27.4987 38.064 26.816C38.704 26.0907 39.1307 25.2587 39.344 24.32C39.6 23.3387 39.728 22.272 39.728 21.12V16.384C39.728 15.232 39.6 14.1653 39.344 13.184C39.1307 12.2027 38.704 11.3493 38.064 10.624C37.424 9.89867 36.5067 9.344 35.312 8.96C34.16 8.53333 32.6453 8.32 30.768 8.32H17.584V28.992ZM24.176 13.888H29.936C31.1733 13.888 31.984 14.208 32.368 14.848C32.752 15.488 32.944 16.2133 32.944 17.024V20.416C32.944 21.2267 32.752 21.952 32.368 22.592C31.984 23.232 31.1733 23.552 29.936 23.552H24.176V13.888ZM231.958 55.616H202.262C201.238 55.616 200.491 55.3813 200.022 54.912C199.552 54.4427 199.318 53.696 199.318 52.672V11.2C199.318 10.6453 199.382 10.176 199.51 9.792C199.68 9.408 199.915 9.088 200.214 8.832L208.47 1.856C208.683 1.68533 208.96 1.55733 209.302 1.472C209.686 1.344 210.091 1.28 210.518 1.28H240.214C241.238 1.28 241.984 1.51466 242.454 1.984C242.923 2.45333 243.158 3.2 243.158 4.224V11.712C243.158 12.2667 243.072 12.736 242.902 13.12C242.774 13.504 242.56 13.824 242.262 14.08L236.758 18.624C237.184 18.8373 237.483 19.1573 237.654 19.584C237.867 20.0107 237.974 20.5653 237.974 21.248V28.096C237.974 28.6507 237.888 29.12 237.718 29.504C237.59 29.888 237.376 30.208 237.078 30.464L231.382 35.264H240.214C241.238 35.264 241.984 35.4987 242.454 35.968C242.923 36.4373 243.158 37.184 243.158 38.208V45.696C243.158 46.2507 243.072 46.72 242.902 47.104C242.774 47.488 242.56 47.808 242.262 48.064L233.942 54.976C233.771 55.1467 233.494 55.296 233.11 55.424C232.768 55.552 232.384 55.616 231.958 55.616ZM240.214 48C241.024 48 241.6 47.8293 241.942 47.488C242.326 47.104 242.518 46.5067 242.518 45.696V38.208C242.518 37.3973 242.326 36.8213 241.942 36.48C241.6 36.096 241.024 35.904 240.214 35.904H222.55V30.4H235.03C235.84 30.4 236.416 30.2293 236.758 29.888C237.142 29.504 237.334 28.9067 237.334 28.096V21.248C237.334 20.4373 237.142 19.8613 236.758 19.52C236.416 19.136 235.84 18.944 235.03 18.944H222.55V14.016H240.214C241.024 14.016 241.6 13.8453 241.942 13.504C242.326 13.12 242.518 12.5227 242.518 11.712V4.224C242.518 3.41333 242.326 2.83733 241.942 2.496C241.6 2.112 241.024 1.92 240.214 1.92H210.518C209.707 1.92 209.11 2.112 208.726 2.496C208.384 2.83733 208.214 3.41333 208.214 4.224V45.696C208.214 46.5067 208.384 47.104 208.726 47.488C209.11 47.8293 209.707 48 210.518 48H240.214ZM236.758 41.6V42.24H215.19V7.68H236.758V8.32H215.83V24.384H231.574V25.024H215.83V41.6H236.758ZM466.805 52.224C465.482 53.3333 463.797 54.1653 461.749 54.72C459.701 55.3173 457.29 55.616 454.517 55.616H432.949C431.925 55.616 431.178 55.3813 430.709 54.912C430.24 54.4427 430.005 53.696 430.005 52.672V11.2C430.005 10.6453 430.069 10.176 430.197 9.792C430.368 9.408 430.602 9.088 430.901 8.832L439.157 1.856C439.37 1.68533 439.648 1.55733 439.989 1.472C440.373 1.344 440.778 1.28 441.205 1.28H462.773C468.362 1.28 472.48 2.41066 475.125 4.672C477.813 6.93333 479.157 10.368 479.157 14.976V34.944C479.157 37.248 478.816 39.2747 478.133 41.024C477.45 42.7307 476.448 44.16 475.125 45.312L466.805 52.224ZM462.773 48C468.106 48 472.053 46.9333 474.613 44.8C477.216 42.6667 478.517 39.3813 478.517 34.944V14.976C478.517 10.5387 477.216 7.25333 474.613 5.12C472.053 2.98667 468.106 1.92 462.773 1.92H441.205C440.394 1.92 439.797 2.112 439.413 2.496C439.072 2.83733 438.901 3.41333 438.901 4.224V45.696C438.901 46.5067 439.072 47.104 439.413 47.488C439.797 47.8293 440.394 48 441.205 48H462.773ZM445.877 42.24V7.68H461.365C463.541 7.68 465.29 7.91466 466.613 8.384C467.978 8.85333 469.024 9.49333 469.749 10.304C470.474 11.072 470.965 12.0107 471.221 13.12C471.477 14.1867 471.605 15.3387 471.605 16.576V33.536C471.605 34.7733 471.477 35.9253 471.221 36.992C471.008 38.0587 470.538 38.976 469.813 39.744C469.088 40.512 468.042 41.1307 466.677 41.6C465.312 42.0267 463.541 42.24 461.365 42.24H445.877ZM461.365 8.32H446.517V41.6H461.365C463.413 41.6 465.056 41.408 466.293 41.024C467.573 40.5973 468.554 40.0427 469.237 39.36C469.92 38.6347 470.368 37.7813 470.581 36.8C470.837 35.776 470.965 34.688 470.965 33.536V16.576C470.965 15.424 470.837 14.336 470.581 13.312C470.325 12.288 469.856 11.4133 469.173 10.688C468.49 9.96267 467.509 9.38667 466.229 8.96C464.992 8.53333 463.37 8.32 461.365 8.32ZM453.429 14.144H461.045C462.069 14.144 462.816 14.4 463.285 14.912C463.797 15.3813 464.053 16.1493 464.053 17.216V32.768C464.053 33.8347 463.797 34.624 463.285 35.136C462.816 35.648 462.069 35.904 461.045 35.904H453.429V14.144ZM455.157 24.192C455.157 23.6373 455.072 23.168 454.901 22.784C454.73 22.4 454.453 22.1227 454.069 21.952V35.264H455.157V24.192ZM671.494 55.616H661.574C660.55 55.616 659.803 55.3813 659.334 54.912C658.865 54.4427 658.63 53.696 658.63 52.672V11.2C658.63 10.6453 658.694 10.176 658.822 9.792C658.993 9.408 659.227 9.088 659.526 8.832L667.782 1.856C667.995 1.68533 668.273 1.55733 668.614 1.472C668.998 1.344 669.403 1.28 669.83 1.28H689.414C692.443 1.28 694.982 1.6 697.03 2.24C699.078 2.88 700.699 3.776 701.894 4.928C703.089 6.08 703.921 7.46666 704.39 9.088C704.902 10.7093 705.158 12.48 705.158 14.4V22.592C705.158 24.64 704.859 26.5173 704.262 28.224C703.707 29.888 702.726 31.3173 701.318 32.512L692.998 39.424C691.931 40.32 690.545 41.0667 688.838 41.664C687.174 42.2187 685.126 42.5387 682.694 42.624V45.696C682.694 46.2507 682.609 46.72 682.438 47.104C682.31 47.488 682.097 47.808 681.798 48.064L673.478 54.976C673.307 55.1467 673.03 55.296 672.646 55.424C672.305 55.552 671.921 55.616 671.494 55.616ZM679.75 48C680.561 48 681.137 47.8293 681.478 47.488C681.862 47.104 682.054 46.5067 682.054 45.696V35.072H689.414C695.217 35.072 699.185 33.92 701.318 31.616C703.451 29.312 704.518 26.304 704.518 22.592V14.4C704.518 10.688 703.451 7.68 701.318 5.376C699.185 3.072 695.217 1.92 689.414 1.92H669.83C669.019 1.92 668.422 2.112 668.038 2.496C667.697 2.83733 667.526 3.41333 667.526 4.224V45.696C667.526 46.5067 667.697 47.104 668.038 47.488C668.422 47.8293 669.019 48 669.83 48H679.75ZM688.518 29.632H675.334V42.24H674.694V7.68H688.518C690.523 7.68 692.145 7.91466 693.382 8.384C694.662 8.81067 695.643 9.408 696.326 10.176C697.009 10.944 697.478 11.8613 697.734 12.928C697.99 13.9947 698.118 15.1467 698.118 16.384V21.12C698.118 22.3573 697.99 23.5093 697.734 24.576C697.478 25.6 697.009 26.496 696.326 27.264C695.643 27.9893 694.662 28.5653 693.382 28.992C692.145 29.4187 690.523 29.632 688.518 29.632ZM675.334 28.992H688.518C690.395 28.992 691.91 28.8 693.062 28.416C694.257 28.032 695.174 27.4987 695.814 26.816C696.454 26.0907 696.881 25.2587 697.094 24.32C697.35 23.3387 697.478 22.272 697.478 21.12V16.384C697.478 15.232 697.35 14.1653 697.094 13.184C696.881 12.2027 696.454 11.3493 695.814 10.624C695.174 9.89867 694.257 9.344 693.062 8.96C691.91 8.53333 690.395 8.32 688.518 8.32H675.334V28.992ZM681.926 13.888H687.686C688.923 13.888 689.734 14.208 690.118 14.848C690.502 15.488 690.694 16.2133 690.694 17.024V20.416C690.694 21.2267 690.502 21.952 690.118 22.592C689.734 23.232 688.923 23.552 687.686 23.552H681.926V13.888Z" fill="#059669"/>
<path d="M83.5825 55.616H53.8865C52.8625 55.616 52.1158 55.3813 51.6465 54.912C51.1772 54.4427 50.9425 53.696 50.9425 52.672V11.2C50.9425 10.6453 51.0065 10.176 51.1345 9.792C51.3052 9.408 51.5398 9.088 51.8385 8.832L60.0945 1.856C60.3078 1.68533 60.5852 1.55733 60.9265 1.472C61.3105 1.344 61.7158 1.28 62.1425 1.28H91.8385C92.8625 1.28 93.6092 1.51466 94.0785 1.984C94.5478 2.45333 94.7825 3.2 94.7825 4.224V11.712C94.7825 12.2667 94.6972 12.736 94.5265 13.12C94.3985 13.504 94.1852 13.824 93.8865 14.08L88.3825 18.624C88.8092 18.8373 89.1078 19.1573 89.2785 19.584C89.4918 20.0107 89.5985 20.5653 89.5985 21.248V28.096C89.5985 28.6507 89.5132 29.12 89.3425 29.504C89.2145 29.888 89.0012 30.208 88.7025 30.464L83.0065 35.264H91.8385C92.8625 35.264 93.6092 35.4987 94.0785 35.968C94.5478 36.4373 94.7825 37.184 94.7825 38.208V45.696C94.7825 46.2507 94.6972 46.72 94.5265 47.104C94.3985 47.488 94.1852 47.808 93.8865 48.064L85.5665 54.976C85.3958 55.1467 85.1185 55.296 84.7345 55.424C84.3932 55.552 84.0092 55.616 83.5825 55.616ZM91.8385 48C92.6492 48 93.2252 47.8293 93.5665 47.488C93.9505 47.104 94.1425 46.5067 94.1425 45.696V38.208C94.1425 37.3973 93.9505 36.8213 93.5665 36.48C93.2252 36.096 92.6492 35.904 91.8385 35.904H74.1745V30.4H86.6545C87.4652 30.4 88.0412 30.2293 88.3825 29.888C88.7665 29.504 88.9585 28.9067 88.9585 28.096V21.248C88.9585 20.4373 88.7665 19.8613 88.3825 19.52C88.0412 19.136 87.4652 18.944 86.6545 18.944H74.1745V14.016H91.8385C92.6492 14.016 93.2252 13.8453 93.5665 13.504C93.9505 13.12 94.1425 12.5227 94.1425 11.712V4.224C94.1425 3.41333 93.9505 2.83733 93.5665 2.496C93.2252 2.112 92.6492 1.92 91.8385 1.92H62.1425C61.3318 1.92 60.7345 2.112 60.3505 2.496C60.0092 2.83733 59.8385 3.41333 59.8385 4.224V45.696C59.8385 46.5067 60.0092 47.104 60.3505 47.488C60.7345 47.8293 61.3318 48 62.1425 48H91.8385ZM88.3825 41.6V42.24H66.8145V7.68H88.3825V8.32H67.4545V24.384H83.1985V25.024H67.4545V41.6H88.3825ZM277.968 8.32H264.016V26.816H277.968C280.613 26.816 282.384 26.176 283.28 24.896C284.176 23.616 284.624 21.8027 284.624 19.456V14.976C284.624 13.0133 284.069 11.4133 282.96 10.176C281.893 8.93867 280.229 8.32 277.968 8.32ZM270.928 13.44H275.728C276.837 13.44 277.584 13.7387 277.968 14.336C278.352 14.8907 278.544 15.5947 278.544 16.448V18.624C278.544 19.4773 278.352 20.2027 277.968 20.8C277.584 21.3547 276.837 21.632 275.728 21.632H270.928V13.44ZM264.016 42.24H263.376V7.68H277.968C280.442 7.68 282.277 8.384 283.472 9.792C284.666 11.1573 285.264 12.8853 285.264 14.976V19.392C285.264 21.3547 285.008 22.976 284.496 24.256C283.984 25.4933 282.96 26.3467 281.424 26.816H282.128C284.73 26.816 286.672 27.4133 287.952 28.608C289.232 29.76 289.872 31.4453 289.872 33.664V42.24H289.232V33.664C289.232 31.5733 288.656 30.016 287.504 28.992C286.352 27.9253 284.56 27.392 282.128 27.392H264.016V42.24ZM268.624 48C269.434 48 270.01 47.8293 270.352 47.488C270.736 47.104 270.928 46.5067 270.928 45.696V33.152H279.888C280.784 33.152 281.402 33.3867 281.744 33.856C282.128 34.2827 282.319 34.9653 282.319 35.904V45.696C282.319 46.5067 282.49 47.104 282.832 47.488C283.216 47.8293 283.813 48 284.624 48H294.544C295.354 48 295.93 47.8293 296.272 47.488C296.656 47.104 296.848 46.5067 296.848 45.696V32.128C296.848 29.44 296.122 27.2853 294.672 25.664C293.264 24.0427 291.408 23.104 289.104 22.848C290.426 22.2933 291.344 21.3973 291.856 20.16C292.41 18.88 292.688 17.344 292.688 15.552V12.608C292.688 9.45066 291.77 6.89066 289.936 4.928C288.144 2.92266 284.858 1.92 280.08 1.92H258.768C257.957 1.92 257.36 2.112 256.976 2.496C256.634 2.83733 256.464 3.41333 256.464 4.224V45.696C256.464 46.5067 256.634 47.104 256.976 47.488C257.36 47.8293 257.957 48 258.768 48H268.624ZM270.672 48.064L262.352 54.976C262.181 55.1467 261.904 55.296 261.52 55.424C261.178 55.552 260.794 55.616 260.368 55.616H250.512C249.488 55.616 248.741 55.3813 248.272 54.912C247.802 54.4427 247.568 53.696 247.568 52.672V11.2C247.568 10.6453 247.632 10.176 247.76 9.792C247.93 9.408 248.165 9.088 248.464 8.832L256.72 1.856C256.933 1.68533 257.21 1.55733 257.552 1.472C257.936 1.344 258.341 1.28 258.768 1.28H280.08C285.157 1.28 288.634 2.34667 290.512 4.48C292.389 6.57066 293.328 9.28 293.328 12.608V15.552C293.328 17.1307 293.136 18.5173 292.752 19.712C292.368 20.864 291.749 21.8027 290.896 22.528H290.832C292.837 23.0827 294.437 24.192 295.632 25.856C296.869 27.52 297.488 29.6107 297.488 32.128V45.696C297.488 46.2507 297.402 46.72 297.232 47.104C297.104 47.488 296.89 47.808 296.592 48.064L288.272 54.976C288.101 55.1467 287.824 55.296 287.44 55.424C287.098 55.552 286.714 55.616 286.288 55.616H276.368C275.344 55.616 274.597 55.3813 274.128 54.912C273.658 54.4427 273.424 53.696 273.424 52.672V42.88C273.424 42.1973 273.296 41.6853 273.04 41.344C272.784 40.96 272.314 40.768 271.632 40.768H271.568V45.696C271.568 46.2507 271.482 46.72 271.312 47.104C271.184 47.488 270.97 47.808 270.672 48.064ZM517.807 55.616H507.887C506.863 55.616 506.116 55.3813 505.647 54.912C505.177 54.4427 504.943 53.696 504.943 52.672V11.2C504.943 10.6453 505.007 10.176 505.135 9.792C505.305 9.408 505.54 9.088 505.839 8.832L514.095 1.856C514.308 1.68533 514.585 1.55733 514.927 1.472C515.311 1.344 515.716 1.28 516.143 1.28H535.727C538.756 1.28 541.295 1.6 543.343 2.24C545.391 2.88 547.012 3.776 548.207 4.928C549.401 6.08 550.233 7.46666 550.703 9.088C551.215 10.7093 551.471 12.48 551.471 14.4V22.592C551.471 24.64 551.172 26.5173 550.575 28.224C550.02 29.888 549.039 31.3173 547.631 32.512L539.311 39.424C538.244 40.32 536.857 41.0667 535.151 41.664C533.487 42.2187 531.439 42.5387 529.007 42.624V45.696C529.007 46.2507 528.921 46.72 528.751 47.104C528.623 47.488 528.409 47.808 528.111 48.064L519.791 54.976C519.62 55.1467 519.343 55.296 518.958 55.424C518.617 55.552 518.233 55.616 517.807 55.616ZM526.063 48C526.873 48 527.449 47.8293 527.791 47.488C528.175 47.104 528.367 46.5067 528.367 45.696V35.072H535.727C541.529 35.072 545.497 33.92 547.631 31.616C549.764 29.312 550.831 26.304 550.831 22.592V14.4C550.831 10.688 549.764 7.68 547.631 5.376C545.497 3.072 541.529 1.92 535.727 1.92H516.143C515.332 1.92 514.735 2.112 514.351 2.496C514.009 2.83733 513.839 3.41333 513.839 4.224V45.696C513.839 46.5067 514.009 47.104 514.351 47.488C514.735 47.8293 515.332 48 516.143 48H526.063ZM534.831 29.632H521.647V42.24H521.007V7.68H534.831C536.836 7.68 538.457 7.91466 539.694 8.384C540.975 8.81067 541.956 9.408 542.639 10.176C543.321 10.944 543.791 11.8613 544.047 12.928C544.303 13.9947 544.431 15.1467 544.431 16.384V21.12C544.431 22.3573 544.303 23.5093 544.047 24.576C543.791 25.6 543.321 26.496 542.639 27.264C541.956 27.9893 540.975 28.5653 539.694 28.992C538.457 29.4187 536.836 29.632 534.831 29.632ZM521.647 28.992H534.831C536.708 28.992 538.223 28.8 539.375 28.416C540.569 28.032 541.487 27.4987 542.127 26.816C542.767 26.0907 543.193 25.2587 543.407 24.32C543.663 23.3387 543.791 22.272 543.791 21.12V16.384C543.791 15.232 543.663 14.1653 543.407 13.184C543.193 12.2027 542.767 11.3493 542.127 10.624C541.487 9.89867 540.569 9.344 539.375 8.96C538.223 8.53333 536.708 8.32 534.831 8.32H521.647V28.992ZM528.239 13.888H533.999C535.236 13.888 536.046 14.208 536.431 14.848C536.815 15.488 537.007 16.2133 537.007 17.024V20.416C537.007 21.2267 536.815 21.952 536.431 22.592C536.046 23.232 535.236 23.552 533.999 23.552H528.239V13.888ZM732.693 55.616H722.325C721.258 55.616 720.49 55.3813 720.021 54.912C719.594 54.4427 719.381 53.696 719.381 52.672V44.672L709.717 31.744C708.693 30.3787 708.01 29.184 707.669 28.16C707.327 27.136 707.157 25.5787 707.157 23.488V11.2C707.157 10.6453 707.221 10.176 707.349 9.792C707.519 9.408 707.754 9.088 708.053 8.832L716.309 1.856C716.522 1.68533 716.799 1.55733 717.141 1.472C717.525 1.344 717.93 1.28 718.357 1.28H728.213C729.237 1.28 729.983 1.51466 730.453 1.984C730.922 2.45333 731.157 3.2 731.157 4.224V14.72C731.157 15.104 731.178 15.488 731.221 15.872C731.263 16.256 731.391 16.6613 731.605 17.088L732.373 18.176V11.2C732.373 10.6453 732.437 10.176 732.565 9.792C732.735 9.408 732.97 9.088 733.269 8.832L741.525 1.856C741.738 1.68533 742.015 1.55733 742.357 1.472C742.741 1.344 743.146 1.28 743.573 1.28H753.109C754.133 1.28 754.879 1.51466 755.349 1.984C755.818 2.45333 756.053 3.2 756.053 4.224V16.512C756.053 18.6027 755.882 20.16 755.541 21.184C755.199 22.208 754.517 23.4027 753.493 24.768L743.893 37.76V45.696C743.893 46.2507 743.807 46.72 743.637 47.104C743.509 47.488 743.295 47.808 742.997 48.064L734.677 54.976C734.506 55.1467 734.229 55.296 733.845 55.424C733.503 55.552 733.119 55.616 732.693 55.616ZM740.949 48C741.759 48 742.335 47.8293 742.677 47.488C743.061 47.104 743.253 46.5067 743.253 45.696V37.568L752.981 24.384C753.919 23.0613 754.559 21.9093 754.901 20.928C755.242 19.9467 755.413 18.4747 755.413 16.512V4.224C755.413 3.41333 755.221 2.83733 754.837 2.496C754.495 2.112 753.919 1.92 753.109 1.92H743.573C742.762 1.92 742.165 2.112 741.781 2.496C741.439 2.83733 741.269 3.41333 741.269 4.224V14.72C741.269 15.1467 741.247 15.5947 741.205 16.064C741.162 16.5333 740.991 16.9813 740.693 17.408L737.749 22.016C737.535 22.4 737.301 22.6773 737.045 22.848C736.831 23.0187 736.554 23.104 736.213 23.104H735.573C735.231 23.104 734.933 23.0187 734.677 22.848C734.463 22.6773 734.25 22.4 734.037 22.016L731.093 17.408C730.794 16.9813 730.623 16.5333 730.581 16.064C730.538 15.5947 730.517 15.1467 730.517 14.72V4.224C730.517 3.41333 730.325 2.83733 729.941 2.496C729.599 2.112 729.023 1.92 728.213 1.92H718.357C717.546 1.92 716.949 2.112 716.565 2.496C716.223 2.83733 716.053 3.41333 716.053 4.224V16.512C716.053 18.4747 716.202 19.9467 716.501 20.928C716.842 21.9093 717.503 23.0613 718.485 24.384L728.277 37.504V45.696C728.277 46.5067 728.447 47.104 728.789 47.488C729.173 47.8293 729.77 48 730.581 48H740.949ZM736.533 31.296H736.085V42.24H735.445V31.296H734.805C733.866 31.296 733.013 31.0827 732.245 30.656C731.519 30.2293 730.815 29.5467 730.133 28.608L723.925 19.968C723.455 19.328 723.178 18.5813 723.093 17.728C723.007 16.8747 722.965 15.9787 722.965 15.04V7.68H723.605V15.04C723.605 15.936 723.647 16.7893 723.733 17.6C723.818 18.368 724.074 19.072 724.501 19.712L730.709 28.352C731.263 29.2053 731.903 29.8027 732.629 30.144C733.354 30.4853 734.079 30.656 734.805 30.656H736.533C737.343 30.656 738.069 30.4853 738.708 30.144C739.391 29.76 740.053 29.1627 740.693 28.352L747.093 19.712C747.519 19.1573 747.775 18.4747 747.861 17.664C747.946 16.8107 747.989 15.936 747.989 15.04V7.68H748.629V15.04C748.629 15.9787 748.586 16.8747 748.501 17.728C748.458 18.5387 748.181 19.2853 747.669 19.968L741.269 28.608C740.586 29.5467 739.861 30.2293 739.093 30.656C738.367 31.0827 737.514 31.296 736.533 31.296Z" fill="#E11D48"/>
<path d="M112.057 55.616H102.137C101.113 55.616 100.366 55.3813 99.8965 54.912C99.4272 54.4427 99.1925 53.696 99.1925 52.672V11.2C99.1925 10.6453 99.2565 10.176 99.3845 9.792C99.5552 9.408 99.7898 9.088 100.089 8.832L108.345 1.856C108.558 1.68533 108.835 1.55733 109.177 1.472C109.561 1.344 109.966 1.28 110.393 1.28H129.977C133.006 1.28 135.545 1.6 137.593 2.24C139.641 2.88 141.262 3.776 142.457 4.928C143.651 6.08 144.483 7.46666 144.953 9.088C145.465 10.7093 145.721 12.48 145.721 14.4V22.592C145.721 24.64 145.422 26.5173 144.825 28.224C144.27 29.888 143.289 31.3173 141.881 32.512L133.561 39.424C132.494 40.32 131.107 41.0667 129.401 41.664C127.737 42.2187 125.689 42.5387 123.257 42.624V45.696C123.257 46.2507 123.171 46.72 123.001 47.104C122.873 47.488 122.659 47.808 122.361 48.064L114.041 54.976C113.87 55.1467 113.593 55.296 113.208 55.424C112.867 55.552 112.483 55.616 112.057 55.616ZM120.313 48C121.123 48 121.699 47.8293 122.041 47.488C122.425 47.104 122.617 46.5067 122.617 45.696V35.072H129.977C135.779 35.072 139.747 33.92 141.881 31.616C144.014 29.312 145.081 26.304 145.081 22.592V14.4C145.081 10.688 144.014 7.68 141.881 5.376C139.747 3.072 135.779 1.92 129.977 1.92H110.393C109.582 1.92 108.985 2.112 108.601 2.496C108.259 2.83733 108.089 3.41333 108.089 4.224V45.696C108.089 46.5067 108.259 47.104 108.601 47.488C108.985 47.8293 109.582 48 110.393 48H120.313ZM129.081 29.632H115.897V42.24H115.257V7.68H129.081C131.086 7.68 132.707 7.91466 133.944 8.384C135.225 8.81067 136.206 9.408 136.889 10.176C137.571 10.944 138.041 11.8613 138.297 12.928C138.553 13.9947 138.681 15.1467 138.681 16.384V21.12C138.681 22.3573 138.553 23.5093 138.297 24.576C138.041 25.6 137.571 26.496 136.889 27.264C136.206 27.9893 135.225 28.5653 133.944 28.992C132.707 29.4187 131.086 29.632 129.081 29.632ZM115.897 28.992H129.081C130.958 28.992 132.473 28.8 133.625 28.416C134.819 28.032 135.737 27.4987 136.377 26.816C137.017 26.0907 137.443 25.2587 137.657 24.32C137.913 23.3387 138.041 22.272 138.041 21.12V16.384C138.041 15.232 137.913 14.1653 137.657 13.184C137.443 12.2027 137.017 11.3493 136.377 10.624C135.737 9.89867 134.819 9.344 133.625 8.96C132.473 8.53333 130.958 8.32 129.081 8.32H115.897V28.992ZM122.489 13.888H128.249C129.486 13.888 130.296 14.208 130.681 14.848C131.065 15.488 131.257 16.2133 131.257 17.024V20.416C131.257 21.2267 131.065 21.952 130.681 22.592C130.296 23.232 129.486 23.552 128.249 23.552H122.489V13.888ZM337.678 28.608V30.592H362.638V28.608C362.638 27.456 362.531 26.3893 362.318 25.408C362.147 24.4267 361.912 23.5093 361.614 22.656L357.198 12.224C356.728 11.1147 356.238 10.1973 355.726 9.472C355.214 8.704 354.36 8.32 353.166 8.32H346.894C345.614 8.32 344.718 8.704 344.206 9.472C343.694 10.1973 343.224 11.0933 342.798 12.16L338.702 22.656C338.403 23.5093 338.147 24.4267 337.934 25.408C337.763 26.3893 337.678 27.456 337.678 28.608ZM347.918 15.36C348.088 14.976 348.259 14.6987 348.43 14.528C348.643 14.3573 348.878 14.272 349.134 14.272H350.734C350.99 14.272 351.203 14.3573 351.374 14.528C351.587 14.6987 351.779 14.976 351.95 15.36L354.958 25.088H344.91L347.918 15.36ZM362.638 42.24V31.232H337.678V42.24H337.038V28.608C337.038 27.4133 337.123 26.3253 337.294 25.344C337.507 24.32 337.784 23.3387 338.126 22.4L342.222 11.904C342.691 10.7093 343.224 9.70667 343.822 8.896C344.419 8.08533 345.443 7.68 346.894 7.68H353.166C354.574 7.68 355.555 8.08533 356.11 8.896C356.707 9.70667 357.262 10.7307 357.774 11.968L362.19 22.4C362.531 23.3387 362.787 24.32 362.958 25.344C363.171 26.3253 363.278 27.4133 363.278 28.608V42.24H362.638ZM344.27 45.696V36.736H355.597V45.696C355.597 46.5067 355.789 47.104 356.174 47.488C356.6 47.8293 357.24 48 358.094 48H367.758C368.568 48 369.144 47.8293 369.486 47.488C369.87 47.104 370.062 46.5067 370.062 45.696V28.8C370.062 27.52 369.848 26.048 369.422 24.384C369.038 22.72 368.419 20.7787 367.566 18.56L361.998 4.032C361.742 3.30666 361.336 2.77333 360.782 2.432C360.27 2.09067 359.608 1.92 358.798 1.92H341.582C340.728 1.92 340.024 2.09067 339.47 2.432C338.958 2.77333 338.574 3.30666 338.318 4.032L332.75 18.56C331.896 20.7787 331.256 22.72 330.83 24.384C330.446 26.048 330.254 27.52 330.254 28.8V45.696C330.254 46.5067 330.424 47.104 330.766 47.488C331.15 47.8293 331.747 48 332.558 48H341.966C342.776 48 343.352 47.8293 343.694 47.488C344.078 47.104 344.27 46.5067 344.27 45.696ZM335.694 54.976C335.523 55.1467 335.246 55.296 334.862 55.424C334.52 55.552 334.136 55.616 333.71 55.616H324.302C323.278 55.616 322.531 55.3813 322.062 54.912C321.592 54.4427 321.358 53.696 321.358 52.672V35.776C321.358 34.4533 321.55 32.96 321.934 31.296C322.36 29.5893 323.022 27.584 323.918 25.28L329.422 10.816C329.55 10.432 329.699 10.112 329.87 9.856C330.083 9.55733 330.296 9.30133 330.51 9.088L330.574 9.024L338.766 2.176C339.107 1.87733 339.512 1.664 339.982 1.536C340.451 1.36533 340.984 1.28 341.582 1.28H358.798C359.779 1.28 360.568 1.49333 361.166 1.92C361.806 2.304 362.275 2.92266 362.574 3.776L368.142 18.304C369.038 20.608 369.678 22.6133 370.062 24.32C370.488 25.984 370.702 27.4773 370.702 28.8V45.696C370.702 46.2507 370.616 46.72 370.446 47.104C370.318 47.488 370.104 47.808 369.806 48.064L361.486 54.976C361.315 55.1467 361.038 55.296 360.654 55.424C360.312 55.552 359.928 55.616 359.502 55.616H349.838C348.771 55.616 347.982 55.36 347.47 54.848C346.958 54.3787 346.702 53.6533 346.702 52.672V44.352H344.91V45.696C344.91 46.2507 344.824 46.72 344.654 47.104C344.526 47.488 344.312 47.808 344.014 48.064L335.694 54.976ZM591.485 52.544C589.992 53.824 587.901 54.8053 585.213 55.488C582.525 56.2133 579.069 56.576 574.845 56.576C570.664 56.576 567.229 56.128 564.541 55.232C561.896 54.3787 559.805 53.2267 558.269 51.776C556.776 50.3253 555.73 48.6613 555.133 46.784C554.578 44.9067 554.301 42.9653 554.301 40.96V21.056C554.301 19.0933 554.578 17.28 555.133 15.616C555.688 13.9093 556.69 12.4587 558.141 11.264L566.461 4.352C567.954 3.072 570.024 2.09067 572.669 1.408C575.357 0.682663 578.834 0.319996 583.101 0.319996C587.282 0.319996 590.696 0.66133 593.341 1.344C596.029 2.02666 598.12 2.98666 599.613 4.224C601.149 5.41867 602.194 6.86933 602.749 8.576C603.304 10.24 603.581 12.0747 603.581 14.08V35.904C603.581 37.8667 603.304 39.68 602.749 41.344C602.194 43.008 601.192 44.4373 599.741 45.632L591.485 52.544ZM602.941 35.904V14.08C602.941 12.1173 602.642 10.3467 602.045 8.768C601.49 7.14666 600.466 5.76 598.973 4.608C597.522 3.456 595.496 2.56 592.893 1.92C590.333 1.28 587.069 0.959999 583.101 0.959999C579.133 0.959999 575.848 1.28 573.245 1.92C570.642 2.56 568.594 3.456 567.101 4.608C565.65 5.76 564.626 7.14666 564.029 8.768C563.474 10.3467 563.197 12.1173 563.197 14.08V35.904C563.197 37.8667 563.474 39.6587 564.029 41.28C564.626 42.8587 565.65 44.224 567.101 45.376C568.594 46.4853 570.642 47.36 573.245 48C575.848 48.64 579.133 48.96 583.101 48.96C587.069 48.96 590.333 48.64 592.893 48C595.496 47.36 597.522 46.4853 598.973 45.376C600.466 44.224 601.49 42.8587 602.045 41.28C602.642 39.6587 602.941 37.8667 602.941 35.904ZM595.965 34.432C595.965 36.992 595.048 39.0827 593.213 40.704C591.378 42.2827 587.965 43.072 582.973 43.072C577.981 43.072 574.589 42.2827 572.797 40.704C571.005 39.0827 570.109 36.992 570.109 34.432V15.552C570.109 12.992 571.005 10.9227 572.797 9.344C574.589 7.72267 577.981 6.912 582.973 6.912C587.965 6.912 591.378 7.72267 593.213 9.344C595.048 10.9227 595.965 12.992 595.965 15.552V34.432ZM570.749 34.432C570.749 36.8213 571.602 38.7627 573.309 40.256C575.016 41.7067 578.237 42.432 582.973 42.432C587.709 42.432 590.952 41.7067 592.701 40.256C594.45 38.7627 595.325 36.8213 595.325 34.432V15.552C595.325 13.1627 594.45 11.2427 592.701 9.792C590.952 8.29867 587.709 7.552 582.973 7.552C578.237 7.552 575.016 8.29867 573.309 9.792C571.602 11.2427 570.749 13.1627 570.749 15.552V34.432ZM577.725 33.6V16.384C577.725 15.5733 578.045 14.8907 578.685 14.336C579.325 13.7387 580.797 13.44 583.101 13.44C585.405 13.44 586.877 13.7387 587.517 14.336C588.157 14.8907 588.477 15.5733 588.477 16.384V33.6C588.477 34.4533 588.157 35.1787 587.517 35.776C586.877 36.3307 585.405 36.608 583.101 36.608C580.797 36.608 579.325 36.3307 578.685 35.776C578.045 35.1787 577.725 34.4533 577.725 33.6ZM578.365 33.6C578.365 34.0267 578.45 34.4107 578.621 34.752C578.792 35.0507 579.112 35.3067 579.581 35.52V23.36C579.581 22.9333 579.496 22.5707 579.325 22.272C579.154 21.9307 578.834 21.6747 578.365 21.504V33.6Z" fill="#0EA5E9"/>
<path d="M162.119 55.616H152.199C151.175 55.616 150.428 55.3813 149.959 54.912C149.49 54.4427 149.255 53.696 149.255 52.672V11.2C149.255 10.6453 149.319 10.176 149.447 9.792C149.618 9.408 149.852 9.088 150.151 8.832L158.407 1.856C158.62 1.68533 158.898 1.55733 159.239 1.472C159.623 1.344 160.028 1.28 160.455 1.28H180.039C183.068 1.28 185.607 1.6 187.655 2.24C189.703 2.88 191.324 3.776 192.519 4.928C193.714 6.08 194.546 7.46666 195.015 9.088C195.527 10.7093 195.783 12.48 195.783 14.4V22.592C195.783 24.64 195.484 26.5173 194.887 28.224C194.332 29.888 193.351 31.3173 191.943 32.512L183.623 39.424C182.556 40.32 181.17 41.0667 179.463 41.664C177.799 42.2187 175.751 42.5387 173.319 42.624V45.696C173.319 46.2507 173.234 46.72 173.063 47.104C172.935 47.488 172.722 47.808 172.423 48.064L164.103 54.976C163.932 55.1467 163.655 55.296 163.271 55.424C162.93 55.552 162.546 55.616 162.119 55.616ZM170.375 48C171.186 48 171.762 47.8293 172.103 47.488C172.487 47.104 172.679 46.5067 172.679 45.696V35.072H180.039C185.842 35.072 189.81 33.92 191.943 31.616C194.076 29.312 195.143 26.304 195.143 22.592V14.4C195.143 10.688 194.076 7.68 191.943 5.376C189.81 3.072 185.842 1.92 180.039 1.92H160.455C159.644 1.92 159.047 2.112 158.663 2.496C158.322 2.83733 158.151 3.41333 158.151 4.224V45.696C158.151 46.5067 158.322 47.104 158.663 47.488C159.047 47.8293 159.644 48 160.455 48H170.375ZM179.143 29.632H165.959V42.24H165.319V7.68H179.143C181.148 7.68 182.77 7.91466 184.007 8.384C185.287 8.81067 186.268 9.408 186.951 10.176C187.634 10.944 188.103 11.8613 188.359 12.928C188.615 13.9947 188.743 15.1467 188.743 16.384V21.12C188.743 22.3573 188.615 23.5093 188.359 24.576C188.103 25.6 187.634 26.496 186.951 27.264C186.268 27.9893 185.287 28.5653 184.007 28.992C182.77 29.4187 181.148 29.632 179.143 29.632ZM165.959 28.992H179.143C181.02 28.992 182.535 28.8 183.687 28.416C184.882 28.032 185.799 27.4987 186.439 26.816C187.079 26.0907 187.506 25.2587 187.719 24.32C187.975 23.3387 188.103 22.272 188.103 21.12V16.384C188.103 15.232 187.975 14.1653 187.719 13.184C187.506 12.2027 187.079 11.3493 186.439 10.624C185.799 9.89867 184.882 9.344 183.687 8.96C182.535 8.53333 181.02 8.32 179.143 8.32H165.959V28.992ZM172.551 13.888H178.311C179.548 13.888 180.359 14.208 180.743 14.848C181.127 15.488 181.319 16.2133 181.319 17.024V20.416C181.319 21.2267 181.127 21.952 180.743 22.592C180.359 23.232 179.548 23.552 178.311 23.552H172.551V13.888ZM392.787 8.192L416.339 34.688V7.68H416.979V42.24H416.339V35.648L392.147 8.512C392.104 8.46933 392.04 8.42666 391.955 8.384C391.912 8.34133 391.869 8.32 391.827 8.32C391.784 8.32 391.741 8.34133 391.699 8.384C391.699 8.42666 391.699 8.46933 391.699 8.512V42.24H391.059V8.384C391.059 8.128 391.144 7.936 391.315 7.808C391.485 7.68 391.656 7.616 391.827 7.616C391.997 7.616 392.147 7.65866 392.275 7.744C392.403 7.82933 392.573 7.97866 392.787 8.192ZM396.243 48C397.053 48 397.629 47.8293 397.971 47.488C398.355 47.104 398.547 46.5067 398.547 45.696V24.576L409.491 37.824V45.696C409.491 46.5067 409.661 47.104 410.003 47.488C410.387 47.8293 410.984 48 411.795 48H421.395C422.205 48 422.781 47.8293 423.123 47.488C423.507 47.104 423.699 46.5067 423.699 45.696V4.224C423.699 3.41333 423.507 2.83733 423.123 2.496C422.781 2.112 422.205 1.92 421.395 1.92H411.795C410.984 1.92 410.387 2.112 410.003 2.496C409.661 2.83733 409.491 3.41333 409.491 4.224V17.856L397.075 3.648C396.52 3.008 395.944 2.56 395.347 2.304C394.792 2.048 394.109 1.92 393.299 1.92H386.643C385.832 1.92 385.235 2.112 384.851 2.496C384.509 2.83733 384.339 3.41333 384.339 4.224V45.696C384.339 46.5067 384.509 47.104 384.851 47.488C385.235 47.8293 385.832 48 386.643 48H396.243ZM398.291 48.064L389.971 54.976C389.8 55.1467 389.523 55.296 389.139 55.424C388.797 55.552 388.413 55.616 387.987 55.616H378.387C377.363 55.616 376.616 55.3813 376.147 54.912C375.677 54.4427 375.443 53.696 375.443 52.672V11.2C375.443 10.6453 375.507 10.176 375.635 9.792C375.805 9.408 376.04 9.088 376.339 8.832L384.595 1.856C384.808 1.68533 385.085 1.55733 385.427 1.472C385.811 1.344 386.216 1.28 386.643 1.28H393.299C394.237 1.28 395.027 1.42933 395.667 1.728C396.307 2.02666 396.947 2.51733 397.587 3.2L402.003 8.32L409.747 1.856C409.96 1.68533 410.237 1.55733 410.579 1.472C410.963 1.344 411.368 1.28 411.795 1.28H421.395C422.419 1.28 423.165 1.51466 423.635 1.984C424.104 2.45333 424.339 3.2 424.339 4.224V45.696C424.339 46.2507 424.253 46.72 424.083 47.104C423.955 47.488 423.741 47.808 423.443 48.064L415.123 54.976C414.952 55.1467 414.675 55.296 414.291 55.424C413.949 55.552 413.565 55.616 413.139 55.616H403.539C402.515 55.616 401.768 55.3813 401.299 54.912C400.829 54.4427 400.595 53.696 400.595 52.672V45.056L399.187 43.328V45.696C399.187 46.2507 399.101 46.72 398.931 47.104C398.803 47.488 398.589 47.808 398.291 48.064ZM621.432 55.616H611.512C610.488 55.616 609.741 55.3813 609.272 54.912C608.802 54.4427 608.568 53.696 608.568 52.672V11.2C608.568 10.6453 608.632 10.176 608.76 9.792C608.93 9.408 609.165 9.088 609.464 8.832L617.72 1.856C617.933 1.68533 618.21 1.55733 618.552 1.472C618.936 1.344 619.341 1.28 619.768 1.28H639.352C642.381 1.28 644.92 1.6 646.968 2.24C649.016 2.88 650.637 3.776 651.832 4.928C653.026 6.08 653.858 7.46666 654.328 9.088C654.84 10.7093 655.096 12.48 655.096 14.4V22.592C655.096 24.64 654.797 26.5173 654.2 28.224C653.645 29.888 652.664 31.3173 651.256 32.512L642.936 39.424C641.869 40.32 640.482 41.0667 638.776 41.664C637.112 42.2187 635.064 42.5387 632.632 42.624V45.696C632.632 46.2507 632.546 46.72 632.376 47.104C632.248 47.488 632.034 47.808 631.736 48.064L623.416 54.976C623.245 55.1467 622.968 55.296 622.583 55.424C622.242 55.552 621.858 55.616 621.432 55.616ZM629.688 48C630.498 48 631.074 47.8293 631.416 47.488C631.8 47.104 631.992 46.5067 631.992 45.696V35.072H639.352C645.154 35.072 649.122 33.92 651.256 31.616C653.389 29.312 654.456 26.304 654.456 22.592V14.4C654.456 10.688 653.389 7.68 651.256 5.376C649.122 3.072 645.154 1.92 639.352 1.92H619.768C618.957 1.92 618.36 2.112 617.976 2.496C617.634 2.83733 617.464 3.41333 617.464 4.224V45.696C617.464 46.5067 617.634 47.104 617.976 47.488C618.36 47.8293 618.957 48 619.768 48H629.688ZM638.456 29.632H625.272V42.24H624.632V7.68H638.456C640.461 7.68 642.082 7.91466 643.319 8.384C644.6 8.81067 645.581 9.408 646.264 10.176C646.946 10.944 647.416 11.8613 647.672 12.928C647.928 13.9947 648.056 15.1467 648.056 16.384V21.12C648.056 22.3573 647.928 23.5093 647.672 24.576C647.416 25.6 646.946 26.496 646.264 27.264C645.581 27.9893 644.6 28.5653 643.319 28.992C642.082 29.4187 640.461 29.632 638.456 29.632ZM625.272 28.992H638.456C640.333 28.992 641.848 28.8 643 28.416C644.194 28.032 645.112 27.4987 645.752 26.816C646.392 26.0907 646.818 25.2587 647.032 24.32C647.288 23.3387 647.416 22.272 647.416 21.12V16.384C647.416 15.232 647.288 14.1653 647.032 13.184C646.818 12.2027 646.392 11.3493 645.752 10.624C645.112 9.89867 644.194 9.344 643 8.96C641.848 8.53333 640.333 8.32 638.456 8.32H625.272V28.992ZM631.864 13.888H637.624C638.861 13.888 639.671 14.208 640.056 14.848C640.44 15.488 640.632 16.2133 640.632 17.024V20.416C640.632 21.2267 640.44 21.952 640.056 22.592C639.671 23.232 638.861 23.552 637.624 23.552H631.864V13.888Z" fill="#F59E0B"/>
</svg>
